<?xml version="1.0" encoding="UTF-8"?>
<svg version="1.1" xmlns="http://www.w3.org/2000/svg" width="1169" height="297">
<path d="M0 0 C385.77 0 771.54 0 1169 0 C1169 98.01 1169 196.02 1169 297 C783.23 297 397.46 297 0 297 C0 198.99 0 100.98 0 0 Z " fill="#09090B" transform="translate(0,0)"/>
<path d="M0 0 C385.77 0 771.54 0 1169 0 C1169 98.01 1169 196.02 1169 297 C783.23 297 397.46 297 0 297 C0 198.99 0 100.98 0 0 Z M318 19 C318 106.12 318 193.24 318 283 C593.55 283 869.1 283 1153 283 C1153 195.88 1153 108.76 1153 19 C877.45 19 601.9 19 318 19 Z " fill="#040406" transform="translate(0,0)"/>
<path d="M0 0 C286.77 0 573.54 0 869 0 C869 98.01 869 196.02 869 297 C582.23 297 295.46 297 0 297 C0 198.99 0 100.98 0 0 Z M18 19 C18 106.12 18 193.24 18 283 C293.55 283 569.1 283 853 283 C853 195.88 853 108.76 853 19 C577.45 19 301.9 19 18 19 Z " fill="#040406" transform="translate(300,0)"/>
<path d="M0 0 C68.97 0 137.94 0 209 0 C205.4375394 4.74994747 201.87446635 9.48664012 198.25 14.1875 C197.37886625 15.3176775 196.50777367 16.44788674 195.63671875 17.578125 C195.1989209 18.14595703 194.76112305 18.71378906 194.31005859 19.29882812 C193.04438589 20.94236287 191.78142955 22.58794114 190.51953125 24.234375 C185.75418413 30.44885015 180.94558957 36.62665932 176.09912109 42.77807617 C172.69388255 47.10479543 169.32814374 51.46051946 165.97607422 55.82861328 C158.0364794 66.16833493 150.05822479 76.47661352 141.875 86.625 C137.82458818 91.64938367 133.90740651 96.75435976 130.0625 101.9375 C126.00593812 107.40596304 121.82363593 112.74027278 117.5 118 C112.62478264 123.93198623 107.95273965 129.98161929 103.37451172 136.14501953 C99.31429053 141.60540913 95.13670081 146.96247128 90.91796875 152.30078125 C87.56965371 156.53796803 84.25246192 160.79919591 80.9375 165.0625 C80.34042236 165.83029785 79.74334473 166.5980957 79.12817383 167.38916016 C75.67596982 171.83238439 72.23711377 176.28548735 68.8125 180.75 C64.94662561 185.78639283 61.03442925 190.78395785 57.10473633 195.77050781 C54.04299687 199.66010883 51.01122876 203.5711942 48 207.5 C44.61220507 211.91895 41.19533077 216.31325961 37.75 220.6875 C29.29037929 231.42932153 20.89345942 242.22057384 12.5625 253.0625 C11.78132813 254.07828125 11.00015625 255.0940625 10.1953125 256.140625 C8.74955825 258.02370705 7.30677013 259.90907067 5.8671875 261.796875 C5.23039062 262.62703125 4.59359375 263.4571875 3.9375 264.3125 C3.11572266 265.38951172 3.11572266 265.38951172 2.27734375 266.48828125 C1.85582031 266.98714844 1.43429688 267.48601562 1 268 C0.67 268 0.34 268 0 268 C0 179.56 0 91.12 0 0 Z " fill="#FEFEFE" transform="translate(16,17)"/>
<path d="M0 0 C17.16 0 34.32 0 52 0 C52 59.07 52 118.14 52 179 C34.18 179 16.36 179 -2 179 C-12.98958333 160.31770833 -12.98958333 160.31770833 -18 151 C-20.28041397 146.84792552 -22.57681631 142.70476102 -24.875 138.5625 C-25.19170654 137.99150574 -25.50841309 137.42051147 -25.8347168 136.83221436 C-31.61830312 126.41235653 -37.50765526 116.05506086 -43.45654297 105.72875977 C-44.07932129 104.64522217 -44.70209961 103.56168457 -45.34375 102.4453125 C-45.88193359 101.51219238 -46.42011719 100.57907227 -46.97460938 99.61767578 C-50.05392354 94.11752182 -53.0115209 88.55003262 -56 83 C-56.33 114.68 -56.66 146.36 -57 179 C-74.16 179 -91.32 179 -109 179 C-109 120.26 -109 61.52 -109 1 C-90.19 1 -71.38 1 -52 1 C-47.71 8.92 -43.42 16.84 -39 25 C-35.4967728 31.42860249 -31.99280145 37.85673616 -28.48388672 44.28222656 C-25.49449446 49.75736882 -22.50819001 55.23419622 -19.52172852 60.7109375 C-16.89943984 65.5194023 -14.27526519 70.32682561 -11.6484375 75.1328125 C-11.10058594 76.13570313 -10.55273438 77.13859375 -9.98828125 78.171875 C-8.93677355 80.09666875 -7.88471703 82.0211628 -6.83203125 83.9453125 C-6.35894531 84.8115625 -5.88585937 85.6778125 -5.3984375 86.5703125 C-4.98255371 87.33102051 -4.56666992 88.09172852 -4.13818359 88.87548828 C-3.05491569 90.89749542 -2.02586376 92.94827249 -1 95 C-0.67 63.65 -0.34 32.3 0 0 Z " fill="#FCFCFC" transform="translate(922,56)"/>
<path d="M0 0 C18.15 0 36.3 0 55 0 C60.56338028 13.35211268 60.56338028 13.35211268 62.75 19.75 C65.19488059 26.81670965 67.79226391 33.81850467 70.4375 40.8125 C73.5215572 48.97768885 76.48799367 57.1708832 79.33569336 65.42114258 C81.61567934 71.98925351 84.04089262 78.49706155 86.5 85 C89.58230878 93.1542903 92.5550958 101.33507771 95.41064453 109.57128906 C100.65238665 124.67400217 106.21520935 139.66018517 111.85498047 154.61816406 C112.55738188 156.48201916 113.25747614 158.34674561 113.95507812 160.21240234 C114.68058307 162.14787326 115.4142457 164.08029812 116.15429688 166.01025391 C116.52103516 166.98269043 116.88777344 167.95512695 117.265625 168.95703125 C117.59852539 169.82948486 117.93142578 170.70193848 118.27441406 171.60083008 C119 174 119 174 119 178 C100.19 178 81.38 178 62 178 C60.35 172.06 58.7 166.12 57 160 C56.01 157.525 56.01 157.525 55 155 C55 154.01 55 153.02 55 152 C36.19 152 17.38 152 -2 152 C-2.495 154.97 -2.495 154.97 -3 158 C-4.98 164.6 -6.96 171.2 -9 178 C-27.48 178 -45.96 178 -65 178 C-61.05122322 166.15366967 -57.02750321 154.40445953 -52.31005859 142.84350586 C-50.32432035 137.92489703 -48.54331754 132.95093751 -46.8125 127.9375 C-43.76457454 119.10944847 -40.59144477 110.33019267 -37.375 101.5625 C-37.14511383 100.93455536 -36.91522766 100.30661072 -36.67837524 99.65963745 C-33.91683405 92.11928876 -31.09583317 84.60521124 -28.20117188 77.11499023 C-23.37652 64.60325584 -18.66254905 52.0460544 -14.24291992 39.38525391 C-10.92524025 29.88883931 -7.44770243 20.44977549 -4 11 C-2.68 7.37 -1.36 3.74 0 0 Z " fill="#FCFCFC" transform="translate(691,57)"/>
<path d="M0 0 C18.15 0 36.3 0 55 0 C58.91799254 10.07483796 62.80121814 20.06431829 66.33984375 30.26171875 C71.21149522 44.21907561 76.28169952 58.1093188 81.40820312 71.97485352 C84.63487177 80.70447574 87.80810537 89.45342491 90.98388672 98.20166016 C92.65422898 102.80172334 94.32723508 107.40081737 96 112 C96.66667974 113.83332858 97.3333464 115.66666192 98 117.5 C98.33 118.4075 98.66 119.315 99 120.25 C100 123 101 125.75 102 128.5 C102.33040283 129.40854736 102.66080566 130.31709473 103.0012207 131.25317383 C103.66397537 133.07587065 104.3265745 134.89862404 104.98901367 136.72143555 C106.71422496 141.46799691 108.44259653 146.213375 110.17578125 150.95703125 C110.53349609 151.93736328 110.89121094 152.91769531 111.25976562 153.92773438 C111.93844031 155.78747929 112.6180565 157.64688103 113.29882812 159.50585938 C119 175.13963423 119 175.13963423 119 178 C100.19 178 81.38 178 62 178 C55 154 55 154 55 152 C36.19 152 17.38 152 -2 152 C-2.495 154.97 -2.495 154.97 -3 158 C-4.98 164.6 -6.96 171.2 -9 178 C-27.48 178 -45.96 178 -65 178 C-63.10533665 171.6844555 -61.20146734 165.69436431 -58.75 159.625 C-56.10786262 152.9689417 -53.64953188 146.26909344 -51.3125 139.5 C-49.31950888 133.72966533 -47.29069085 128.0053152 -44.953125 122.36328125 C-43.99958959 119.99898238 -43.11540807 117.62055777 -42.25 115.22265625 C-41.89977783 114.25465088 -41.54955566 113.28664551 -41.1887207 112.28930664 C-40.79644287 111.20383545 -40.40416504 110.11836426 -40 109 C-39.07724997 106.45817714 -38.1541046 103.91650083 -37.23046875 101.375 C-36.98634247 100.7029805 -36.74221619 100.030961 -36.49069214 99.33857727 C-22.51724907 60.87358066 -22.51724907 60.87358066 -18.5625 50.6875 C-15.71418779 43.33401423 -13.03943172 35.91851993 -10.35546875 28.50390625 C-6.91320136 18.99913808 -3.45464583 9.50027604 0 0 Z " fill="#FCFCFC" transform="translate(392,57)"/>
<path d="M0 0 C18.15 0 36.3 0 55 0 C57.3063177 6.91895309 59.46541343 13.81583221 61.5 20.8125 C61.94279297 22.31780273 61.94279297 22.31780273 62.39453125 23.85351562 C64.1536302 29.8863726 65.76186382 35.93881093 67.26269531 42.04077148 C68.47873197 46.92142723 69.80604565 51.77134129 71.125 56.625 C74.09863418 67.61555191 77.02731355 78.61750661 79.9375 89.625 C80.14062805 90.39322083 80.3437561 91.16144165 80.55303955 91.95294189 C81.70278125 96.30176203 82.85173626 100.65078935 84 105 C87.01653185 95.57073752 89.62928529 86.07239463 92.11828613 76.4934082 C92.98723659 73.14958611 93.86256949 69.8074441 94.73748779 66.46517944 C95.18281859 64.7637817 95.62784697 63.06230478 96.0725708 61.36074829 C99.33181471 48.89389089 102.65766627 36.44482122 106 24 C106.44931885 22.32647461 106.44931885 22.32647461 106.90771484 20.61914062 C107.74800516 17.49528143 108.59184696 14.37241123 109.4375 11.25 C109.8082666 9.87328125 109.8082666 9.87328125 110.18652344 8.46875 C110.52538574 7.22351563 110.52538574 7.22351563 110.87109375 5.953125 C111.06630615 5.23286133 111.26151855 4.51259766 111.46264648 3.77050781 C112 2 112 2 113 0 C131.48 0 149.96 0 169 0 C167.87680704 7.86235072 167.87680704 7.86235072 166.765625 10.98828125 C166.52376465 11.68566406 166.2819043 12.38304688 166.03271484 13.1015625 C165.77441895 13.83117187 165.51612305 14.56078125 165.25 15.3125 C163.06068592 21.65741989 161.10845131 28.01593666 159.375 34.5 C157.91184325 39.94997086 156.24683046 45.08740404 154.0234375 50.28125 C152.35721038 54.70756326 151.22198136 59.27731047 149.99609375 63.84155273 C148.30184474 70.0801113 146.32284444 76.18646442 144.23535156 82.30297852 C142.47885638 87.47921385 140.88369767 92.68399918 139.375 97.9375 C138.06472246 102.49977926 136.69136624 106.999355 135 111.4375 C133.30699313 115.93203014 131.99769505 120.49135914 130.75 125.125 C128.71636471 132.6488859 126.44565213 140.07957625 124.0625 147.5 C123.59505371 148.95623779 123.59505371 148.95623779 123.11816406 150.44189453 C120.14242034 159.64971316 117.06030142 168.81909573 114 178 C93.54 178 73.08 178 52 178 C45 154 45 154 41.875 143 C39.92875366 136.16225686 37.89751331 129.36459248 35.74902344 122.58813477 C34.4737339 118.555006 33.27162027 114.50897366 32.125 110.4375 C30.43003785 104.4342277 28.6359426 98.46544488 26.8125 92.5 C24.00149145 83.29746748 21.20682237 74.09016393 18.4375 64.875 C18.24494629 64.23444672 18.05239258 63.59389343 17.85400391 62.93392944 C15.1942278 54.07728324 12.609689 45.20298849 10.10620117 36.30102539 C8.22814893 29.67086199 6.17507263 23.10355719 4.00317383 16.5637207 C2.19559305 11.01226713 1.1663669 5.83183451 0 0 Z " fill="#FDFDFD" transform="translate(485,57)"/>
<path d="M0 0 C50.82 0 101.64 0 154 0 C154 14.85 154 29.7 154 45 C137.83 45 121.66 45 105 45 C105 88.89 105 132.78 105 178 C86.52 178 68.04 178 49 178 C49 134.44 49 90.88 49 46 C32.83 46 16.66 46 0 46 C0 30.82 0 15.64 0 0 Z " fill="#FBFBFB" transform="translate(980,57)"/>
<path d="M0 0 C10.89 0 21.78 0 33 0 C32.31303101 4.80878295 31.84870958 7.92674039 30.1875 12.21875 C29.82914062 13.16621094 29.47078125 14.11367187 29.1015625 15.08984375 C28.73804688 16.05019531 28.37453125 17.01054687 28 18 C27.34707434 19.84125035 26.70127244 21.68504185 26.0625 23.53125 C25.73088867 24.4893457 25.39927734 25.44744141 25.05761719 26.43457031 C24.53409668 27.95195801 24.53409668 27.95195801 24 29.5 C23.62262695 30.59151367 23.24525391 31.68302734 22.85644531 32.80761719 C20.53491788 39.52979099 18.22540183 46.25601645 15.921875 52.984375 C15.6590271 53.75193115 15.3961792 54.5194873 15.12536621 55.31030273 C13.83213197 59.08723582 12.54003707 62.86455181 11.25 66.64257812 C8.58971548 74.4241877 5.87273267 82.1809935 3.09448242 89.92138672 C1.66978935 93.92883255 0.3284478 97.95992003 -1 102 C-1.65657921 103.96126346 -2.31420568 105.92217651 -2.97265625 107.8828125 C-3.6692915 109.96353475 -4.36590578 112.04426402 -5.0625 114.125 C-5.41376953 115.17042969 -5.76503906 116.21585937 -6.12695312 117.29296875 C-6.46791016 118.31261719 -6.80886719 119.33226562 -7.16015625 120.3828125 C-7.61853882 121.75010498 -7.61853882 121.75010498 -8.08618164 123.14501953 C-9.13044609 126.40754383 -10.05892261 129.70622915 -11 133 C-28.49 133 -45.98 133 -64 133 C-63.05213918 128.26069589 -61.51594997 124.48090831 -59.4375 120.1875 C-59.08107422 119.44121338 -58.72464844 118.69492676 -58.35742188 117.92602539 C-54.98866003 110.90357786 -51.50980495 103.93665951 -48 96.98388672 C-46.32468412 93.6602498 -44.66306533 90.32977862 -43 87 C-42.32428374 85.64840501 -41.64850272 84.29684239 -40.97265625 82.9453125 C-40.64152832 82.28305664 -40.31040039 81.62080078 -39.96923828 80.93847656 C-37.24609375 75.4921875 -37.24609375 75.4921875 -36.35571289 73.71166992 C-35.73354597 72.46717065 -35.11164662 71.22253758 -34.48999023 69.9777832 C-32.47141128 65.93727297 -30.4475461 61.89946535 -28.41911316 57.8638916 C-19.04419817 39.2564061 -19.04419817 39.2564061 -10.05297852 20.46166992 C-6.84009215 13.5616985 -3.41085688 6.82171375 0 0 Z " fill="#FBFBFB" transform="translate(185,151)"/>
<path d="M0 0 C2.31 0 4.62 0 7 0 C7 98.01 7 196.02 7 297 C4.69 297 2.38 297 0 297 C0 198.99 0 100.98 0 0 Z " fill="#F7F7F7" transform="translate(293,0)"/>
<path d="M0 0 C1.75763672 0.08701172 1.75763672 0.08701172 3.55078125 0.17578125 C4.73027344 0.22089844 5.90976562 0.26601563 7.125 0.3125 C8.48044922 0.39951172 8.48044922 0.39951172 9.86328125 0.48828125 C9.16668427 4.33827123 8.14658884 7.9916648 6.97265625 11.72265625 C6.40224609 13.54603516 6.40224609 13.54603516 5.8203125 15.40625 C5.41817168 16.68365765 5.01582779 17.96100139 4.61328125 19.23828125 C2.15199642 27.06964209 -0.27554264 34.90453363 -2.57421875 42.78515625 C-5.00499695 51.11077419 -7.55799459 59.3954496 -10.15869141 67.66943359 C-10.90345719 70.04159504 -11.64315918 72.41530262 -12.3828125 74.7890625 C-12.85776982 76.30348051 -13.33301837 77.81780722 -13.80859375 79.33203125 C-14.13824127 80.39266785 -14.13824127 80.39266785 -14.47454834 81.47473145 C-16.02226739 86.37382989 -16.02226739 86.37382989 -17.13671875 87.48828125 C-18.84444233 87.57541956 -20.55570524 87.59528132 -22.265625 87.5859375 C-23.81733398 87.58110352 -23.81733398 87.58110352 -25.40039062 87.57617188 C-26.48900391 87.56779297 -27.57761719 87.55941406 -28.69921875 87.55078125 C-30.33793945 87.54401367 -30.33793945 87.54401367 -32.00976562 87.53710938 C-34.7188037 87.52527951 -37.42773474 87.50879668 -40.13671875 87.48828125 C-38.28521292 81.54397304 -36.06850043 75.98309021 -33.44384766 70.34033203 C-31.26783368 65.5924435 -29.30985217 60.75561476 -27.32421875 55.92578125 C-24.01770841 47.92755087 -20.61256497 39.9901527 -17.046875 32.10449219 C-14.09841219 25.52738257 -11.43518786 18.8446919 -8.83740234 12.12207031 C-4.36696192 0.67978859 -4.36696192 0.67978859 0 0 Z " fill="#F9F9F9" transform="translate(251.13671875,16.51171875)"/>
<path d="M0 0 C2 1 2 1 2.97387695 3.58178711 C3.30863037 4.7188208 3.64338379 5.85585449 3.98828125 7.02734375 C4.36283447 8.28683838 4.7373877 9.54633301 5.12329102 10.84399414 C5.52010071 12.20837788 5.91649618 13.57288215 6.3125 14.9375 C6.7169214 16.3132006 7.12178866 17.6887702 7.52709961 19.06420898 C8.69545682 23.03973042 9.84800102 27.01970908 11 31 C11.29970703 32.02383789 11.59941406 33.04767578 11.90820312 34.10253906 C12.63483806 36.58684498 13.35180629 39.07359419 14.0625 41.5625 C14.36764526 42.61135376 14.36764526 42.61135376 14.67895508 43.68139648 C15.70846678 47.36905472 16 50.08065592 16 54 C5.44 54 -5.12 54 -16 54 C-15.34283756 50.05702537 -14.68175656 46.58012867 -13.58203125 42.796875 C-13.15893677 41.33870361 -13.15893677 41.33870361 -12.72729492 39.85107422 C-12.4254126 38.82771973 -12.12353027 37.80436523 -11.8125 36.75 C-11.34710815 35.16276123 -11.34710815 35.16276123 -10.87231445 33.54345703 C-8.13307861 24.28518882 -5.13117337 15.13178116 -2 6 C-1.33132092 4.00067193 -0.66386096 2.00093305 0 0 Z " fill="#0B0B0D" transform="translate(419,117)"/>
<path d="M0 0 C2 1 2 1 3.26171875 4.375 C3.74623858 5.9137817 4.22068249 7.45575585 4.6875 9 C4.94297607 9.82999512 5.19845215 10.65999023 5.46166992 11.51513672 C6.3220784 14.33934669 7.16394155 17.16848711 8 20 C8.31227539 21.05735352 8.62455078 22.11470703 8.94628906 23.20410156 C9.91401488 26.50764993 10.866387 29.81520142 11.8125 33.125 C12.11438232 34.1665625 12.41626465 35.208125 12.72729492 36.28125 C13.00935791 37.28414062 13.2914209 38.28703125 13.58203125 39.3203125 C13.83186768 40.19961426 14.0817041 41.07891602 14.33911133 41.98486328 C15.20477483 45.93423316 15.55351105 49.98159941 16 54 C5.44 54 -5.12 54 -16 54 C-15.21861871 49.31171225 -14.19442554 45.05093088 -12.75 40.5625 C-12.52892578 39.86439209 -12.30785156 39.16628418 -12.08007812 38.44702148 C-10.60149521 33.80236532 -9.05915924 29.18076913 -7.5 24.5625 C-4.76719089 16.44215293 -2.3681146 8.23297714 0 0 Z " fill="#0C0B0D" transform="translate(718,117)"/>
<path d="M0 0 C0.66 0.33 1.32 0.66 2 1 C2.40729228 3.32156597 2.74438677 5.6568787 3 8 C2.67 7.01 2.34 6.02 2 5 C1.01 5.33 0.02 5.66 -1 6 C-0.67 4.02 -0.34 2.04 0 0 Z " fill="#343434" transform="translate(419,117)"/>
</svg>
