<?xml version="1.0" encoding="UTF-8"?>
<svg version="1.1" xmlns="http://www.w3.org/2000/svg" width="437" height="115">
<path d="M0 0 C144.21 0 288.42 0 437 0 C437 37.95 437 75.9 437 115 C292.79 115 148.58 115 0 115 C0 77.05 0 39.1 0 0 Z " fill="#FDFAFA" transform="translate(0,0)"/>
<path d="M0 0 C77.22 0 154.44 0 234 0 C234 37.95 234 75.9 234 115 C149.85 115 65.7 115 -21 115 C-19.515 114.01 -19.515 114.01 -18 113 C-16.61051566 111.82948109 -15.23635602 110.64061722 -13.875 109.4375 C-12.81925781 108.50744141 -12.81925781 108.50744141 -11.7421875 107.55859375 C-10.81046549 106.7250577 -9.88399328 105.88399328 -9 105 C-4.04957309 104.68568718 -0.27292726 104.76825909 4.375 106.5 C15.53414411 110.12106392 28.67017146 109.29977277 39.265625 104.47265625 C47.05087501 100.27974303 52.856517 95.55853399 56 87 C57.00229338 80.13814534 57.17651216 72.87846229 53.44140625 66.80078125 C46.42411851 58.03392583 37.62154765 52.67257093 26.39453125 51.39453125 C23.91400572 51.15290723 21.43225795 50.93705412 18.94897461 50.72583008 C10.71600617 49.98819179 3.14407056 48.84157365 -2.625 42.4375 C-6.03680803 38.01003814 -6.69829337 33.49526518 -6 28 C-3.86458116 22.75042869 -1.30009319 19.66938317 3.6640625 16.8828125 C9.6472006 14.62162653 15.78661758 15.21017167 21.625 17.625 C23.10174539 18.38176632 24.56054465 19.17450589 26 20 C26.73992187 20.4125 27.47984375 20.825 28.2421875 21.25 C33.86924929 24.67686116 37.7660035 28.88398217 41.859375 34.0234375 C43.85752645 36.26391958 43.85752645 36.26391958 46.765625 36.2890625 C47.50296875 36.19367187 48.2403125 36.09828125 49 36 C52.48643936 27.84055998 53.78290739 18.84867428 53 10 C52.505 9.505 52.505 9.505 52 9 C50.02670271 9.0655681 50.02670271 9.0655681 47.75 9.375 C46.98171875 9.46523437 46.2134375 9.55546875 45.421875 9.6484375 C42.98739406 9.93293928 42.98739406 9.93293928 40.6875 10.74609375 C36.70462055 11.12238323 33.74127564 9.38702199 30.25 7.6875 C20.0651206 3.00408469 11.22126555 1.65905424 0 1 C0 0.67 0 0.34 0 0 Z " fill="#C53337" transform="translate(203,0)"/>
<path d="M0 0 C5.60777039 4.41010286 9.60831154 10.54843746 11.8125 17.3125 C11.98985049 20.10740731 12.0657129 22.79864325 12.03955078 25.59106445 C12.03984283 26.41109451 12.04013489 27.23112457 12.04043579 28.07600403 C12.03904675 30.77603885 12.02350567 33.47579486 12.0078125 36.17578125 C12.00408085 38.0519343 12.0012346 39.9280893 11.99923706 41.804245 C11.99161254 46.73456228 11.97197417 51.66476114 11.9498291 56.59503174 C11.92934524 61.62909341 11.92022991 66.66317427 11.91015625 71.69726562 C11.88872717 81.56907074 11.85355463 91.44075698 11.8125 101.3125 C3.8925 101.3125 -4.0275 101.3125 -12.1875 101.3125 C-12.1875 96.0325 -12.1875 90.7525 -12.1875 85.3125 C-23.0775 85.3125 -33.9675 85.3125 -45.1875 85.3125 C-45.1875 90.5925 -45.1875 95.8725 -45.1875 101.3125 C-52.4475 101.3125 -59.7075 101.3125 -67.1875 101.3125 C-67.2555511 91.3498195 -67.31047396 81.38729595 -67.34293652 71.42443466 C-67.35852485 66.79719079 -67.37963672 62.17011559 -67.41381836 57.54296875 C-67.44665752 53.06903702 -67.46440425 48.5952665 -67.47213173 44.12122345 C-67.47763152 42.42297075 -67.48836994 40.72472585 -67.50469017 39.02654266 C-67.64024698 24.32298533 -66.88315632 11.51574678 -56.1875 0.3125 C-53.03207124 -2.17328793 -49.82905426 -4.00678265 -46.1875 -5.6875 C-45.47980469 -6.02523438 -44.77210938 -6.36296875 -44.04296875 -6.7109375 C-29.87495627 -12.44122826 -12.2388916 -8.38375686 0 0 Z " fill="#C53438" transform="translate(331.1875,8.6875)"/>
<path d="M0 0 C5.84270832 4.96401976 11.20029828 10.80861682 12.27083397 18.69418144 C12.36651586 20.90057548 12.37152272 23.08837389 12.34057617 25.29663086 C12.34123329 26.54174438 12.34123329 26.54174438 12.34190369 27.81201172 C12.33982705 30.53377465 12.31654966 33.25490825 12.29296875 35.9765625 C12.28736879 37.87227543 12.28310058 39.76799272 12.28010559 41.66371155 C12.26868836 46.63681161 12.23924815 51.60964601 12.20599365 56.5826416 C12.17522533 61.66378181 12.16158583 66.74496522 12.14648438 71.82617188 C12.11437532 81.78398927 12.06163299 91.74154028 12 101.69921875 C4.41 101.69921875 -3.18 101.69921875 -11 101.69921875 C-11 96.41921875 -11 91.13921875 -11 85.69921875 C-22.22 85.69921875 -33.44 85.69921875 -45 85.69921875 C-45 90.97921875 -45 96.25921875 -45 101.69921875 C-51.93 101.69921875 -58.86 101.69921875 -66 101.69921875 C-66.06792493 91.16319061 -66.12290201 80.62730922 -66.15543652 70.09111118 C-66.17105575 65.19810884 -66.19222534 60.30526478 -66.22631836 55.41235352 C-66.25904568 50.68556613 -66.27688114 45.95893049 -66.28463173 41.2320385 C-66.29015131 39.4336197 -66.30092947 37.63520869 -66.31719017 35.83685493 C-66.42880964 22.97433551 -66.02287691 12.69184411 -57 2.69921875 C-42.02300291 -12.21031439 -16.82527707 -12.2787408 0 0 Z " fill="#C53337" transform="translate(156,8.30078125)"/>
<path d="M0 0 C26.4 0 52.8 0 80 0 C80 36.3 80 72.6 80 110 C71.75 110 63.5 110 55 110 C55 89.21 55 68.42 55 47 C54.34 47 53.68 47 53 47 C52.65195313 47.84111328 52.65195313 47.84111328 52.296875 48.69921875 C50.66922905 51.58681955 48.63740168 53.5155302 46.25 55.8125 C42.2577908 59.71792204 38.55526438 63.69625891 35 68 C29.92663624 65.82896596 26.79194013 61.91833813 23 58 C22.67 63.28 22.34 68.56 22 74 C23.32 74.66 24.64 75.32 26 76 C26.33102914 79.6413205 26.42019439 81.41472925 24.25 84.4375 C22 86 22 86 20.11401367 85.765625 C17.73198673 84.90293456 15.98406015 83.78847555 13.92578125 82.3125 C13.17619141 81.77882813 12.42660156 81.24515625 11.65429688 80.6953125 C10.88150391 80.13585937 10.10871094 79.57640625 9.3125 79 C8.52810547 78.44054687 7.74371094 77.88109375 6.93554688 77.3046875 C1.20027546 73.20027546 1.20027546 73.20027546 0 72 C-0.09436529 69.76070114 -0.11742327 67.5183825 -0.11352539 65.27709961 C-0.11364593 64.56330171 -0.11376646 63.8495038 -0.11389065 63.11407566 C-0.11314165 60.79346713 -0.10551405 58.47293799 -0.09765625 56.15234375 C-0.09618679 54.7236739 -0.0951661 53.29500351 -0.09460449 51.86633301 C-0.08935208 46.55671382 -0.07539099 41.24710614 -0.0625 35.9375 C-0.041875 24.078125 -0.02125 12.21875 0 0 Z " fill="#C53438" transform="translate(0,0)"/>
<path d="M0 0 C30.03 0 60.06 0 91 0 C88.73164975 1.13417513 86.45621845 2.25506122 84.16015625 3.33203125 C76.25543138 7.04721742 76.25543138 7.04721742 70 13 C69.48824219 13.64710937 68.97648437 14.29421875 68.44921875 14.9609375 C60.77628948 25.3990513 61.67130741 37.59890967 61.5859375 50.0390625 C61.56719755 51.77355847 61.54762209 53.5080456 61.5272522 55.24252319 C61.47622336 59.77645622 61.43644235 64.31041871 61.39910889 68.84448242 C61.35888444 73.48363355 61.30787683 78.12266522 61.2578125 82.76171875 C61.1614001 91.8410697 61.07788423 100.92047119 61 110 C68.26 110 75.52 110 83 110 C83 104.72 83 99.44 83 94 C93.89 94 104.78 94 116 94 C116 99.28 116 104.56 116 110 C123.92 110 131.84 110 140 110 C139.98222761 99.22017452 139.94332984 88.4409811 139.86790943 77.66140175 C139.83371369 72.65522981 139.808541 67.64936064 139.80444336 62.64306641 C139.80014449 57.80576612 139.77155052 52.96914798 139.72656822 48.132061 C139.71364385 46.29266722 139.70926748 44.45319158 139.71384621 42.61375809 C139.81515068 28.5729452 139.81515068 28.5729452 134 16 C133.38125 15.071875 132.7625 14.14375 132.125 13.1875 C124.74013104 5.58542902 115.50162863 1.77789842 105 1 C105 0.67 105 0.34 105 0 C118.86 0 132.72 0 147 0 C146.01 0.99 145.02 1.98 144 3 C143.36467833 6.29212137 143.11539884 7.8587156 144 11 C145.28229573 12.45099009 146.62137662 13.85254815 147.99414062 15.21826172 C153.72757027 22.17611709 153.0135698 29.42550653 152.78125 37.9453125 C152.76630092 39.56766958 152.75492652 41.19006315 152.74694824 42.81246948 C152.71662197 47.05157856 152.63823664 51.28844163 152.54931641 55.52667236 C152.46699697 59.86382675 152.43083926 64.20134955 152.390625 68.5390625 C152.30521537 77.02706439 152.16895532 85.51325165 152 94 C150.68 94.33 149.36 94.66 148 95 C147.62367102 97.82923342 147.62367102 97.82923342 148 101 C149.87378029 103.27814511 149.87378029 103.27814511 152.5 105.0625 C153.40492188 105.73539062 154.30984375 106.40828125 155.2421875 107.1015625 C158.7609707 109.52384102 162.35530906 111.77268887 166 114 C166 114.33 166 114.66 166 115 C104.29 115 42.58 115 -21 115 C-19.515 114.01 -19.515 114.01 -18 113 C-16.61051566 111.82948109 -15.23635602 110.64061722 -13.875 109.4375 C-12.81925781 108.50744141 -12.81925781 108.50744141 -11.7421875 107.55859375 C-10.81046549 106.7250577 -9.88399328 105.88399328 -9 105 C-4.04957309 104.68568718 -0.27292726 104.76825909 4.375 106.5 C15.53414411 110.12106392 28.67017146 109.29977277 39.265625 104.47265625 C47.05087501 100.27974303 52.856517 95.55853399 56 87 C57.00229338 80.13814534 57.17651216 72.87846229 53.44140625 66.80078125 C46.42411851 58.03392583 37.62154765 52.67257093 26.39453125 51.39453125 C23.91400572 51.15290723 21.43225795 50.93705412 18.94897461 50.72583008 C10.71600617 49.98819179 3.14407056 48.84157365 -2.625 42.4375 C-6.03680803 38.01003814 -6.69829337 33.49526518 -6 28 C-3.86458116 22.75042869 -1.30009319 19.66938317 3.6640625 16.8828125 C9.6472006 14.62162653 15.78661758 15.21017167 21.625 17.625 C23.10174539 18.38176632 24.56054465 19.17450589 26 20 C26.73992187 20.4125 27.47984375 20.825 28.2421875 21.25 C33.86924929 24.67686116 37.7660035 28.88398217 41.859375 34.0234375 C43.85752645 36.26391958 43.85752645 36.26391958 46.765625 36.2890625 C47.50296875 36.19367187 48.2403125 36.09828125 49 36 C52.48643936 27.84055998 53.78290739 18.84867428 53 10 C52.505 9.505 52.505 9.505 52 9 C50.02670271 9.0655681 50.02670271 9.0655681 47.75 9.375 C46.98171875 9.46523437 46.2134375 9.55546875 45.421875 9.6484375 C42.98739406 9.93293928 42.98739406 9.93293928 40.6875 10.74609375 C36.70462055 11.12238323 33.74127564 9.38702199 30.25 7.6875 C20.0651206 3.00408469 11.22126555 1.65905424 0 1 C0 0.67 0 0.34 0 0 Z " fill="#FDFBFB" transform="translate(203,0)"/>
<path d="M0 0 C3.29581012 1.25638936 4.5903935 1.09241154 7.91015625 0.109375 C9.46904182 -0.14321039 11.03176424 -0.37341586 12.59765625 -0.578125 C13.36464844 -0.68511719 14.13164062 -0.79210937 14.921875 -0.90234375 C16.91015625 -0.890625 16.91015625 -0.890625 18.91015625 1.109375 C20.22800723 9.23897523 18.0450673 18.27483903 15.91015625 26.109375 C13.91015625 28.109375 13.91015625 28.109375 11.57421875 28.55078125 C7.74356133 27.91608288 6.68943417 26.03413001 4.28515625 23.046875 C-2.27495017 15.2939084 -10.4861447 9.15022718 -20.80078125 7.73828125 C-27.47699273 7.57186542 -32.10227435 8.47631421 -37.08984375 13.109375 C-40.26333184 17.57209262 -40.86681209 21.78767402 -40.08984375 27.109375 C-38.36942917 31.81787806 -36.32550234 34.4390685 -32.08984375 37.109375 C-26.0321909 39.63846238 -20.2803476 40.55717037 -13.77734375 40.984375 C-0.64243521 42.15870917 8.93107894 46.11379837 17.91015625 56.109375 C22.37244136 61.63520993 22.63735468 67.69288063 22.421875 74.6328125 C21.3207081 82.11402275 16.92159045 88.15724532 11.04296875 92.796875 C-0.79243828 100.0802024 -14.65439364 102.32803683 -28.25 99.4375 C-29.82542119 98.90819843 -31.39635464 98.36521632 -32.9609375 97.8046875 C-36.71391439 96.57894459 -40.24305184 96.06678654 -44.08984375 97.109375 C-46.08865379 98.74931727 -47.69698186 100.52630676 -49.390625 102.4765625 C-52.04424712 105.02647985 -54.51726943 105.17942548 -58.08984375 105.109375 C-60.6068918 102.59232695 -60.33653974 101.03264601 -60.36773682 97.59777832 C-60.36368835 96.84879272 -60.35963989 96.09980713 -60.35546875 95.328125 C-60.3573822 94.55883667 -60.35929565 93.78954834 -60.36126709 92.99694824 C-60.36262883 91.3695442 -60.35893314 89.7421293 -60.35058594 88.11474609 C-60.33988596 85.61921869 -60.35048126 83.12441118 -60.36328125 80.62890625 C-60.36195965 79.04947757 -60.35939725 77.47004934 -60.35546875 75.890625 C-60.35951721 75.1416394 -60.36356567 74.39265381 -60.36773682 73.62097168 C-60.31976618 68.33929743 -60.31976618 68.33929743 -58.08984375 66.109375 C-55.7578125 65.6953125 -55.7578125 65.6953125 -53.08984375 66.109375 C-50.765625 68.0859375 -50.765625 68.0859375 -48.40234375 70.734375 C-42.05075104 77.39741282 -34.57252104 83.2668687 -25.08984375 84.109375 C-18.40359752 84.18331453 -13.51306243 83.06380529 -8.08984375 79.109375 C-5.92322251 76.49137434 -6.08984375 75.12018599 -6.08984375 71.671875 C-7.34212444 67.21062506 -9.26690259 65.46545425 -13.08984375 63.109375 C-17.57101096 61.0765079 -22.16204454 59.37402239 -26.77734375 57.671875 C-55.10185381 47.14962723 -55.10185381 47.14962723 -61.46484375 33.359375 C-64.71884435 25.49318224 -65.41639986 17.86831043 -62.33984375 9.796875 C-58.20049202 0.64748031 -51.75152512 -3.74309069 -42.46484375 -7.265625 C-27.38432664 -10.22677917 -13.42109476 -6.98495638 0 0 Z " fill="#C53337" transform="translate(238.08984375,8.890625)"/>
<path d="M0 0 C27.06 0 54.12 0 82 0 C82 19.47 82 38.94 82 59 C80.68 58.01 79.36 57.02 78 56 C74.87557852 56.0762054 73.52908721 56.44571816 71.359375 58.71875 C69.31108158 62.15611597 69.78023064 65.33265841 69.89453125 69.24609375 C68.8481224 72.46757077 68.25482487 72.73021904 65.44677734 74.40698242 C64.72124161 74.84025345 63.99570587 75.27352448 63.2481842 75.71992493 C59.86035286 77.64889429 56.43190253 79.47531071 52.95703125 81.2421875 C52.22554367 81.6148172 51.49405609 81.9874469 50.74040222 82.37136841 C49.20966797 83.14826937 47.67777842 83.922898 46.14477539 84.6953125 C43.80143042 85.8805991 41.46836185 87.08472042 39.13476562 88.2890625 C37.63861818 89.04545354 36.14189302 89.8007032 34.64453125 90.5546875 C33.95172562 90.91601776 33.25891998 91.27734802 32.54512024 91.64962769 C28.48914874 93.65924968 26.33789316 94.11520164 22 93 C21.88389705 84.38526672 21.79517995 75.770863 21.74093914 67.15553951 C21.71489955 63.15459905 21.67960662 59.15419579 21.62280273 55.15356445 C21.56827873 51.28910137 21.53853708 47.42515335 21.52561378 43.56033516 C21.51641016 42.08955342 21.49843721 40.61879831 21.47134972 39.14823723 C21.326998 30.98309697 21.27294574 25.26324244 27 19 C27.34107361 16.28757567 27.34107361 16.28757567 26 14 C21.49604527 9.60748333 15.90844313 7.60907259 10.1875 5.25 C9.20845703 4.83878906 8.22941406 4.42757813 7.22070312 4.00390625 C4.81670362 2.99539914 2.40987014 1.9943778 0 1 C0 0.67 0 0.34 0 0 Z " fill="#FEFEFE" transform="translate(355,0)"/>
<path d="M0 0 C4.03439961 3.3102766 6.09350401 7.42081432 6.78552246 12.609375 C6.89823183 15.58106315 6.88768918 18.52678865 6.828125 21.5 C6.82246521 22.57628662 6.81680542 23.65257324 6.81097412 24.76147461 C6.78871234 28.17478265 6.73853352 31.58701309 6.6875 35 C6.66742189 37.32420351 6.64917342 39.6484236 6.6328125 41.97265625 C6.59229485 47.64917938 6.51398122 53.32339382 6.4375 59 C-4.1225 59 -14.6825 59 -25.5625 59 C-25.63144403 52.13113225 -25.69115783 45.26346957 -25.72729492 38.39453125 C-25.74236261 36.05887784 -25.76282049 33.72325263 -25.78881836 31.38769531 C-25.82528958 28.02662181 -25.8422469 24.66592308 -25.85546875 21.3046875 C-25.87095261 20.26384003 -25.88643646 19.22299255 -25.90238953 18.15060425 C-25.90404039 11.00662582 -24.82982239 6.74465342 -20.1875 1.125 C-14.68925749 -3.1575507 -6.26271944 -1.75795633 0 0 Z " fill="#FEFEFE" transform="translate(312.5625,18)"/>
<path d="M0 0 C5.13448209 2.30166439 7.01212133 4.81684817 9 10 C9.40335369 13.84524499 9.34924731 17.66080688 9.29296875 21.5234375 C9.28872391 22.62475006 9.28447906 23.72606262 9.28010559 24.86074829 C9.2633615 28.36575133 9.22571614 31.87017179 9.1875 35.375 C9.17244769 37.75650209 9.15876024 40.13801323 9.14648438 42.51953125 C9.11602849 48.34675721 9.05729654 54.17272927 9 60 C-1.56 60 -12.12 60 -23 60 C-23.09206627 53.30985107 -23.17163658 46.6219194 -23.21972656 39.93164062 C-23.23978317 37.65812716 -23.26703538 35.3846649 -23.30175781 33.11132812 C-23.35053712 29.83450651 -23.37302897 26.55836975 -23.390625 23.28125 C-23.41127014 22.27259888 -23.43191528 21.26394775 -23.45318604 20.22473145 C-23.45559829 12.55666527 -21.98784769 7.06445917 -16.5625 1.5 C-11.07794435 -0.80928659 -5.86073122 -0.7307273 0 0 Z " fill="#FEFEFE" transform="translate(135,17)"/>
<path d="M0 0 C18.15 0 36.3 0 55 0 C55 25 55 25 49.8125 30.8125 C47.90519084 31.92828863 45.96731427 32.99377583 44 34 C42.70642578 35.11955078 42.70642578 35.11955078 41.38671875 36.26171875 C39 38 39 38 37.01171875 38.125 C33.46284023 36.14038444 30.95948378 32.55803117 28.56445312 29.3046875 C26.90229504 27.26400124 26.90229504 27.26400124 23 25 C17.39 24.67 11.78 24.34 6 24 C6 37.2 6 50.4 6 64 C4.02 64.495 4.02 64.495 2 65 C1.01 65.99 1.01 65.99 0 67 C0 44.89 0 22.78 0 0 Z " fill="#FEFCFC" transform="translate(0,0)"/>
<path d="M0 0 C0.33 0 0.66 0 1 0 C1 13.2 1 26.4 1 40 C-19.13 40 -39.26 40 -60 40 C-57.60385573 38.40257049 -55.26966357 37.02678324 -52.73828125 35.671875 C-51.44796997 34.97698975 -51.44796997 34.97698975 -50.1315918 34.26806641 C-49.2012915 33.76710449 -48.27099121 33.26614258 -47.3125 32.75 C-38.86216681 28.16870667 -30.49411271 23.46204089 -22.1875 18.625 C-20.71373901 17.76986816 -20.71373901 17.76986816 -19.21020508 16.89746094 C-14.72552363 14.27254348 -10.27507037 11.59878885 -5.8984375 8.796875 C-5.18220215 8.33893555 -4.4659668 7.88099609 -3.72802734 7.40917969 C-1.19722436 5.34534883 -0.52599385 3.15596312 0 0 Z " fill="#FEFDFD" transform="translate(436,75)"/>
</svg>
