<?xml version="1.0" encoding="UTF-8"?>
<svg version="1.1" xmlns="http://www.w3.org/2000/svg" width="556" height="160">
<path d="M0 0 C183.48 0 366.96 0 556 0 C556 52.8 556 105.6 556 160 C372.52 160 189.04 160 0 160 C0 107.2 0 54.4 0 0 Z " fill="#B22D30" transform="translate(0,0)"/>
<path d="M0 0 C183.48 0 366.96 0 556 0 C556 52.8 556 105.6 556 160 C372.52 160 189.04 160 0 160 C0 107.2 0 54.4 0 0 Z M6 6 C6 54.84 6 103.68 6 154 C186.18 154 366.36 154 552 154 C552 105.16 552 56.32 552 6 C371.82 6 191.64 6 6 6 Z " fill="#B7373B" transform="translate(0,0)"/>
<path d="M0 0 C180.18 0 360.36 0 546 0 C546 48.84 546 97.68 546 148 C365.82 148 185.64 148 0 148 C0 99.16 0 50.32 0 0 Z M4 4 C4 50.2 4 96.4 4 144 C181.21 144 358.42 144 541 144 C541 97.8 541 51.6 541 4 C363.79 4 186.58 4 4 4 Z " fill="#FAF3F3" transform="translate(6,6)"/>
<path d="M0 0 C6.6 0 13.2 0 20 0 C20 1.32 20 2.64 20 4 C20.66 4 21.32 4 22 4 C22.67218507 6.74875682 23.33792435 9.49880726 24 12.25 C24.19078125 13.02730469 24.3815625 13.80460937 24.578125 14.60546875 C24.84882813 15.73662109 24.84882813 15.73662109 25.125 16.890625 C25.29257812 17.58188477 25.46015625 18.27314453 25.6328125 18.98535156 C26 21 26 21 26 25 C26.66 25 27.32 25 28 25 C28 26.65 28 28.3 28 30 C28.66 30 29.32 30 30 30 C30 20.1 30 10.2 30 0 C35.94 0 41.88 0 48 0 C48 23.1 48 46.2 48 70 C41.4 70 34.8 70 28 70 C25.81005752 66.71508627 25.64722661 65.16904361 25.375 61.3125 C25.30023438 60.31863281 25.22546875 59.32476562 25.1484375 58.30078125 C25.07496094 57.16189453 25.07496094 57.16189453 25 56 C24.34 56 23.68 56 23 56 C22.66127487 54.58461283 22.32925376 53.16762037 22 51.75 C21.814375 50.96109375 21.62875 50.1721875 21.4375 49.359375 C21 47 21 47 21 43 C20.01 43 19.02 43 18 43 C18 51.91 18 60.82 18 70 C12.06 70 6.12 70 0 70 C0 46.9 0 23.8 0 0 Z " fill="#FDFBFB" transform="translate(462,48)"/>
<path d="M0 0 C34.56756757 0 34.56756757 0 39.8125 4.3125 C40.534375 5.199375 41.25625 6.08625 42 7 C42.7425 7.886875 43.485 8.77375 44.25 9.6875 C47.26779228 13.67529694 47.10786714 16.13461469 47.0625 21.125 C47.05347656 22.40632813 47.04445312 23.68765625 47.03515625 25.0078125 C47.02355469 25.99523437 47.01195312 26.98265625 47 28 C46.34 28 45.68 28 45 28 C44.9175 28.7425 44.835 29.485 44.75 30.25 C43.85190201 33.54302595 42.61583926 34.85976788 40 37 C39.34 37 38.68 37 38 37 C38 39.97 38 42.94 38 46 C38.66 46 39.32 46 40 46 C40.66 49.63 41.32 53.26 42 57 C42.66 57 43.32 57 44 57 C44.67595315 58.41225926 45.34040059 59.83002905 46 61.25 C46.37125 62.03890625 46.7425 62.8278125 47.125 63.640625 C48 66 48 66 48 70 C41.07 70 34.14 70 27 70 C25.515 65.05 25.515 65.05 24 60 C23.608125 58.783125 23.21625 57.56625 22.8125 56.3125 C21.94171058 52.76235853 21.85137094 49.64141202 22 46 C21.01 46 20.02 46 19 46 C19 53.92 19 61.84 19 70 C12.73 70 6.46 70 0 70 C0 46.9 0 23.8 0 0 Z " fill="#FCF9F9" transform="translate(83,48)"/>
<path d="M0 0 C6.6 0 13.2 0 20 0 C20.33 7.92 20.66 15.84 21 24 C23.23813588 19.52372824 24.47836468 16.67033287 25.5 12 C26.52163532 7.32966713 27.76186412 4.47627176 30 0 C36.6 0 43.2 0 50 0 C49.22726805 3.09092778 48.41888291 5.51642149 47.125 8.375 C46.77050781 9.16003906 46.41601562 9.94507813 46.05078125 10.75390625 C45.17553577 12.62478414 44.25007804 14.47206903 43.3125 16.3125 C42.20166548 18.58706593 41.47518767 20.5290241 41 23 C40.34 23 39.68 23 39 23 C36.76106045 32.60708606 39.58681472 39.48657951 43.25732422 48.20703125 C45.52183906 53.67402567 47.24608984 59.11950075 48 65 C48.66 65 49.32 65 50 65 C50 66.65 50 68.3 50 70 C43.07 70 36.14 70 29 70 C27.8422494 66.52674819 27.93133348 63.63932552 28 60 C27.34 60 26.68 60 26 60 C25.67 57.36 25.34 54.72 25 52 C24.34 52 23.68 52 23 52 C22.34 49.36 21.68 46.72 21 44 C20.67 52.58 20.34 61.16 20 70 C13.4 70 6.8 70 0 70 C0 46.9 0 23.8 0 0 Z " fill="#FDFBFB" transform="translate(269,48)"/>
<path d="M0 0 C6.27 0 12.54 0 19 0 C19.33 16.83 19.66 33.66 20 51 C22.31 51 24.62 51 27 51 C27.33 34.17 27.66 17.34 28 0 C34.27 0 40.54 0 47 0 C47.04948183 7.72297229 47.08575875 15.44585204 47.10986328 23.16894531 C47.11991339 25.79558927 47.1335556 28.42222207 47.15087891 31.04882812 C47.17517028 34.82685098 47.18649319 38.60472573 47.1953125 42.3828125 C47.20563507 43.55490265 47.21595764 44.7269928 47.22659302 45.93460083 C47.22763151 53.50142113 46.72607197 59.20747607 42 65.375 C41.484375 66.06335938 40.96875 66.75171875 40.4375 67.4609375 C39.963125 67.96882813 39.48875 68.47671875 39 69 C38.34 69 37.68 69 37 69 C37 69.66 37 70.32 37 71 C32.37457221 72.14242494 27.86181137 72.25416488 23.125 72.3125 C21.95904297 72.35600586 21.95904297 72.35600586 20.76953125 72.40039062 C14.99808552 72.46344003 11.75655095 71.28601421 7 68 C1.64314158 62.64314158 -0.15288557 56.426285 -0.34057617 49.04296875 C-0.34010566 46.75775745 -0.32342298 44.47250841 -0.29296875 42.1875 C-0.28872391 40.97803711 -0.28447906 39.76857422 -0.28010559 38.52246094 C-0.26339038 34.68140866 -0.22575015 30.84089216 -0.1875 27 C-0.17244397 24.38672636 -0.15875717 21.77344445 -0.14648438 19.16015625 C-0.1135101 12.77323288 -0.06177618 6.3867071 0 0 Z " fill="#FDFAFA" transform="translate(144,48)"/>
<path d="M0 0 C7.59 0 15.18 0 23 0 C24.4783226 2.95664519 24.06032783 5.74229737 24 9 C24.66 9 25.32 9 26 9 C26.18175781 10.02996094 26.36351562 11.05992188 26.55078125 12.12109375 C26.6708252 12.80123535 26.79086914 13.48137695 26.91455078 14.18212891 C27.1826026 15.7013085 27.45050324 17.22051477 27.71826172 18.73974609 C28.4193593 22.71645012 29.1227942 26.69270771 29.83203125 30.66796875 C29.96504639 31.41570557 30.09806152 32.16344238 30.23510742 32.93383789 C30.48823092 34.35636974 30.74224781 35.77874302 30.99731445 37.20092773 C31.75353848 41.45840128 32.41041154 45.71714046 33 50 C33.66 50 34.32 50 35 50 C35.06058594 50.68964844 35.12117188 51.37929687 35.18359375 52.08984375 C35.26738281 53.02957031 35.35117187 53.96929687 35.4375 54.9375 C35.51871094 55.85402344 35.59992188 56.77054688 35.68359375 57.71484375 C36.07843497 61.81436802 36.54518834 65.90669508 37 70 C30.73 70 24.46 70 18 70 C17.67 66.7 17.34 63.4 17 60 C13.37 60 9.74 60 6 60 C5.67 63.3 5.34 66.6 5 70 C-1.6 70 -8.2 70 -15 70 C-14.34 67.03 -13.68 64.06 -13 61 C-12.68981328 59.19057747 -12.39583933 57.37822899 -12.125 55.5625 C-11.294029 50.37882375 -10.18199967 45.29886452 -9 40.1875 C-7.153435 32.16387725 -5.91712531 24.18172312 -5 16 C-4.34 16 -3.68 16 -3 16 C-2.67 11.38 -2.34 6.76 -2 2 C-1.34 2 -0.68 2 0 2 C0 1.34 0 0.68 0 0 Z " fill="#FBF6F6" transform="translate(409,48)"/>
<path d="M0 0 C3.31255326 -0.02683436 6.62489183 -0.0467578 9.9375 -0.0625 C10.88302734 -0.07087891 11.82855469 -0.07925781 12.80273438 -0.08789062 C14.15141602 -0.09272461 14.15141602 -0.09272461 15.52734375 -0.09765625 C16.77632446 -0.10551147 16.77632446 -0.10551147 18.05053711 -0.11352539 C20 0 20 0 21 1 C21.34936119 3.3467421 21.64310633 5.67802648 21.90234375 8.03515625 C22.07224076 9.49935184 22.24216349 10.96354445 22.41210938 12.42773438 C22.67463371 14.73575062 22.93541386 17.04395411 23.19506836 19.35229492 C23.44723494 21.58044744 23.70583608 23.80779012 23.96484375 26.03515625 C24.03887924 26.71256363 24.11291473 27.38997101 24.18919373 28.08790588 C24.74749969 32.86892983 25.76104212 37.36078028 27 42 C29.3910318 28.5009468 29.3910318 28.5009468 30.7890625 14.87109375 C31 13 31 13 32 12 C32.39454223 10.15400312 32.74176866 8.29774178 33.0625 6.4375 C33.371875 4.643125 33.68125 2.84875 34 1 C40.27 1 46.54 1 53 1 C52.33094711 11.97246734 50.26888545 22.26808394 47.4375 32.875 C45.56515876 40.14756757 44.80375645 47.54870488 44 55 C43.34 55 42.68 55 42 55 C40.93582021 60.32089897 39.97068132 65.66125275 39 71 C31.41 71 23.82 71 16 71 C12.625 60.875 12.625 60.875 13 56 C12.34 56 11.68 56 11 56 C10.66076424 53.64655194 10.32849466 51.2924516 10 48.9375 C9.90460938 48.28072266 9.80921875 47.62394531 9.7109375 46.94726562 C9.11112326 42.59861237 8.90872907 38.38670929 9 34 C8.34 34 7.68 34 7 34 C6.67 29.71 6.34 25.42 6 21 C5.34 21 4.68 21 4 21 C4 19.35 4 17.7 4 16 C3.34 16 2.68 16 2 16 C1.34 10.72 0.68 5.44 0 0 Z " fill="#FBF6F6" transform="translate(330,47)"/>
<path d="M0 0 C177.21 0 354.42 0 537 0 C537 46.2 537 92.4 537 140 C359.79 140 182.58 140 0 140 C0 93.8 0 47.6 0 0 Z M1 1 C1 46.21 1 91.42 1 138 C177.22 138 353.44 138 535 138 C535 92.79 535 47.58 535 1 C358.78 1 182.56 1 1 1 Z " fill="#CA8181" transform="translate(10,10)"/>
<path d="M0 0 C14.19 0 28.38 0 43 0 C43 5.94 43 11.88 43 18 C39.37 18 35.74 18 32 18 C32.00523682 19.56999756 32.01047363 21.13999512 32.01586914 22.75756836 C32.03391143 28.5589949 32.04542917 34.36041894 32.05493164 40.16186523 C32.05997363 42.67716895 32.06680703 45.19246972 32.07543945 47.70776367 C32.08751094 51.31429775 32.09322949 54.92079323 32.09765625 58.52734375 C32.10281754 59.65961899 32.10797882 60.79189423 32.11329651 61.95848083 C32.11337204 62.99948441 32.11344757 64.04048798 32.11352539 65.11303711 C32.115746 66.03459091 32.11796661 66.95614471 32.12025452 67.90562439 C32 70 32 70 31 71 C24.4 71 17.8 71 11 71 C11 53.51 11 36.02 11 18 C7.37 18 3.74 18 0 18 C0 12.06 0 6.12 0 0 Z " fill="#FAF3F3" transform="translate(28,48)"/>
<path d="M0 0 C1.36995117 0.02707031 1.36995117 0.02707031 2.76757812 0.0546875 C4.99135082 0.10125866 7.21457365 0.17297849 9.4375 0.25 C9.4375 5.86 9.4375 11.47 9.4375 17.25 C7.375 17.146875 5.3125 17.04375 3.1875 16.9375 C-0.29251925 16.6469193 -0.29251925 16.6469193 -3.5625 17.25 C-7.81202486 21.22513501 -8.42572799 24.73721182 -8.73046875 30.3359375 C-8.807565 40.62338728 -8.807565 40.62338728 -4.90625 49.94921875 C-2.72197776 52.58348313 -2.72197776 52.58348313 0.671875 52.51953125 C1.83203125 52.36871094 2.9921875 52.21789062 4.1875 52.0625 C6.25 51.794375 8.3125 51.52625 10.4375 51.25 C10.4375 57.85 10.4375 64.45 10.4375 71.25 C1.07611166 72.81023139 -6.84193094 73.27487803 -15.5625 69.25 C-15.5625 68.59 -15.5625 67.93 -15.5625 67.25 C-16.119375 67.023125 -16.67625 66.79625 -17.25 66.5625 C-23.69663364 62.90359982 -26.93669877 56.9659916 -29.5625 50.25 C-30.75926999 45.10093406 -30.71202259 40.00600779 -30.6875 34.75 C-30.69136719 33.92113281 -30.69523438 33.09226563 -30.69921875 32.23828125 C-30.69215546 27.79547424 -30.45697213 23.62297486 -29.5625 19.25 C-28.9025 19.25 -28.2425 19.25 -27.5625 19.25 C-27.48 18.3425 -27.3975 17.435 -27.3125 16.5 C-26.44573005 12.74399688 -25.35195906 11.79333032 -22.5625 9.25 C-22.170625 8.425 -21.77875 7.6 -21.375 6.75 C-16.40529662 -0.10476328 -7.77502673 -0.29662611 0 0 Z " fill="#FDFBFB" transform="translate(238.5625,47.75)"/>
<path d="M0 0 C2.1953125 0.47265625 2.1953125 0.47265625 5.2578125 2.41015625 C7.7694826 6.38021544 8.22937945 9.87105833 7.1953125 14.47265625 C5.7890625 16.24609375 5.7890625 16.24609375 4.1953125 17.47265625 C3.5353125 17.47265625 2.8753125 17.47265625 2.1953125 17.47265625 C2.1953125 18.13265625 2.1953125 18.79265625 2.1953125 19.47265625 C0.9371875 19.49328125 -0.3209375 19.51390625 -1.6171875 19.53515625 C-2.32488281 19.54675781 -3.03257812 19.55835937 -3.76171875 19.5703125 C-5.8046875 19.47265625 -5.8046875 19.47265625 -8.8046875 18.47265625 C-11.47507464 14.37746523 -11.4521762 10.19848287 -10.8046875 5.47265625 C-8.37005093 0.28582183 -5.37695536 -0.34604168 0 0 Z " fill="#DBA9AA" transform="translate(524.8046875,22.52734375)"/>
<path d="M0 0 C5.94 0 11.88 0 18 0 C18 23.1 18 46.2 18 70 C17.67 70 17.34 70 17 70 C17 47.56 17 25.12 17 2 C12.05 2 7.1 2 2 2 C2 12.89 2 23.78 2 35 C0.35 34.34 -1.3 33.68 -3 33 C-3 30.36 -3 27.72 -3 25 C-2.67 25 -2.34 25 -2 25 C-2 26.65 -2 28.3 -2 30 C-1.34 30 -0.68 30 0 30 C0 20.1 0 10.2 0 0 Z " fill="#EEDCDB" transform="translate(492,48)"/>
<path d="M0 0 C6.6 0 13.2 0 20 0 C20.06058594 1.68609375 20.12117188 3.3721875 20.18359375 5.109375 C20.2680088 7.32292508 20.35265632 9.53646631 20.4375 11.75 C20.47681641 12.86117187 20.51613281 13.97234375 20.55664062 15.1171875 C20.59853516 16.18710938 20.64042969 17.25703125 20.68359375 18.359375 C20.72025146 19.34389648 20.75690918 20.32841797 20.79467773 21.34277344 C20.97598742 23.68923551 21.34331819 25.74718412 22 28 C20.68 27.67 19.36 27.34 18 27 C18 18.75 18 10.5 18 2 C12.39 2 6.78 2 1 2 C1 24.44 1 46.88 1 70 C0.67 70 0.34 70 0 70 C0 46.9 0 23.8 0 0 Z " fill="#EDDCDC" transform="translate(269,48)"/>
<path d="M0 0 C3.375 -0.125 3.375 -0.125 7 0 C9 2 9 2 9.265625 4.09375 C9.26046875 4.8878125 9.2553125 5.681875 9.25 6.5 C9.25515625 7.2940625 9.2603125 8.088125 9.265625 8.90625 C9 11 9 11 7 13 C0.99541284 13.54587156 0.99541284 13.54587156 -1.9375 11.9375 C-3.55479605 8.98831309 -3.18630138 6.29132441 -3 3 C-2.34 3 -1.68 3 -1 3 C-0.67 2.01 -0.34 1.02 0 0 Z " fill="#D69C9C" transform="translate(520,26)"/>
<path d="M0 0 C1.98 0 3.96 0 6 0 C8.37040308 2.37040308 8.34465793 3.06302753 8.4375 6.3125 C8.36426116 10.09650682 8.09133815 10.87903867 5.6875 14.0625 C3 16 3 16 0 16 C0 10.72 0 5.44 0 0 Z " fill="#BF5558" transform="translate(102,63)"/>
<path d="M0 0 C0.99 0 1.98 0 3 0 C3.66 3.63 4.32 7.26 5 11 C4.34 10.67 3.68 10.34 3 10 C2.67 15.94 2.34 21.88 2 28 C-4.6 28 -11.2 28 -18 28 C-18 27.67 -18 27.34 -18 27 C-12.06 27 -6.12 27 0 27 C0 18.09 0 9.18 0 0 Z " fill="#BF5053" transform="translate(480,91)"/>
<path d="M0 0 C0 6.6 0 13.2 0 20 C-4.3093728 20.7182288 -7.94869863 21.16048178 -12.25 21.1875 C-13.28640625 21.20167969 -14.3228125 21.21585938 -15.390625 21.23046875 C-18 21 -18 21 -20 19 C-14.06 19 -8.12 19 -2 19 C-2 13.72 -2 8.44 -2 3 C-5.63 3 -9.26 3 -13 3 C-13 2.67 -13 2.34 -13 2 C-11.20873548 1.66451233 -9.41697413 1.33167645 -7.625 1 C-6.62726563 0.814375 -5.62953125 0.62875 -4.6015625 0.4375 C-2 0 -2 0 0 0 Z " fill="#D8A3A3" transform="translate(249,99)"/>
<path d="M0 0 C1.01287218 2.63346767 1.10530849 3.73715686 0.0390625 6.3984375 C-1.4622083 11.60209041 -1.28903728 16.61285534 -1.25 22 C-1.25773438 23.06734375 -1.26546875 24.1346875 -1.2734375 25.234375 C-1.26005736 30.61319106 -0.96872345 34.9280345 1 40 C0.67 40.66 0.34 41.32 0 42 C-4.37162318 35.53760052 -4.16014388 29.03250547 -4.125 21.5 C-4.12886719 20.67113281 -4.13273438 19.84226562 -4.13671875 18.98828125 C-4.12965546 14.54547424 -3.89447213 10.37297486 -3 6 C-2.34 6 -1.68 6 -1 6 C-0.67 4.02 -0.34 2.04 0 0 Z " fill="#E1BDBD" transform="translate(212,61)"/>
<path d="M0 0 C0.33 0 0.66 0 1 0 C1.66 6.93 2.32 13.86 3 21 C1.02 21 -0.96 21 -3 21 C-2.68981396 18.4372008 -2.37693109 15.8747789 -2.0625 13.3125 C-1.97548828 12.59126953 -1.88847656 11.87003906 -1.79882812 11.12695312 C-1.33686195 7.37989416 -0.80832321 3.69207089 0 0 Z " fill="#BC5153" transform="translate(420,72)"/>
<path d="M0 0 C6.6 0 13.2 0 20 0 C19.67 1.32 19.34 2.64 19 4 C18.67 3.34 18.34 2.68 18 2 C8.31084448 1.3860837 8.31084448 1.3860837 -0.17578125 4.84765625 C-1.38845866 6.8759397 -2.3015974 8.74559749 -3 11 C-3.33 10.34 -3.66 9.68 -4 9 C-2.68 6.03 -1.36 3.06 0 0 Z " fill="#EEDBDB" transform="translate(299,48)"/>
<path d="M0 0 C2.31 0 4.62 0 7 0 C7 0.66 7 1.32 7 2 C4.69 2 2.38 2 0 2 C0 4.97 0 7.94 0 11 C0.66 11 1.32 11 2 11 C2.33 10.01 2.66 9.02 3 8 C4.5 9.375 4.5 9.375 6 11 C6 11.66 6 12.32 6 13 C0.63157895 13.35789474 0.63157895 13.35789474 -1.875 11.9375 C-3.58196395 8.99772876 -3.18799766 6.32129197 -3 3 C-2.34 3 -1.68 3 -1 3 C-0.67 2.01 -0.34 1.02 0 0 Z " fill="#C16364" transform="translate(520,26)"/>
<path d="M0 0 C1.62283808 3.24567617 0.54725234 6.63839624 0.0625 10.125 C-0.03740234 10.87910156 -0.13730469 11.63320312 -0.24023438 12.41015625 C-0.48798404 14.27417753 -0.74328057 16.13719288 -1 18 C-1.66 18 -2.32 18 -3 18 C-3.72994559 21.59711928 -4.40974758 25.20060329 -5.0625 28.8125 C-5.23910156 29.78832031 -5.41570312 30.76414062 -5.59765625 31.76953125 C-5.73042969 32.50558594 -5.86320312 33.24164063 -6 34 C-6.33 34 -6.66 34 -7 34 C-7.40850553 26.91923749 -5.90420731 20.80074041 -4 14 C-3.34 14 -2.68 14 -2 14 C-1.93941406 13.07316406 -1.87882812 12.14632812 -1.81640625 11.19140625 C-1.73261719 9.99386719 -1.64882813 8.79632813 -1.5625 7.5625 C-1.48128906 6.36753906 -1.40007812 5.17257813 -1.31640625 3.94140625 C-1 1 -1 1 0 0 Z " fill="#D69A9B" transform="translate(375,84)"/>
<path d="M0 0 C0 0.33 0 0.66 0 1 C-1.546875 1.061875 -1.546875 1.061875 -3.125 1.125 C-6.85448294 1.96714131 -9.14835184 2.81142878 -11.77734375 5.63671875 C-14.62800446 11.14678178 -14.5801383 17.90476642 -15 24 C-15.33 24 -15.66 24 -16 24 C-16.4342816 7.9557076 -16.4342816 7.9557076 -12.5 1.5625 C-8.55999779 -0.90000138 -4.52467012 -0.3108552 0 0 Z " fill="#C56B6C" transform="translate(245,64)"/>
<path d="M0 0 C0.99 0.33 1.98 0.66 3 1 C3.77303488 9.03956273 3.77303488 9.03956273 0.9375 12.5625 C-2.5973893 14.29233945 -5.11182268 14.30495508 -9 14 C-9.33 13.34 -9.66 12.68 -10 12 C-7.94921875 11.77213542 -5.8984375 11.54427083 -3.84765625 11.31640625 C-1.98859771 11.18113386 -1.98859771 11.18113386 -1 10 C-0.76712992 8.31816052 -0.58735834 6.6287584 -0.4375 4.9375 C-0.35371094 4.01839844 -0.26992188 3.09929688 -0.18359375 2.15234375 C-0.12300781 1.44207031 -0.06242188 0.73179688 0 0 Z " fill="#E2BFBF" transform="translate(529,27)"/>
<path d="M0 0 C0.33 0 0.66 0 1 0 C1 11.55 1 23.1 1 35 C-0.32 34.34 -1.64 33.68 -3 33 C-3 30.36 -3 27.72 -3 25 C-2.67 25 -2.34 25 -2 25 C-2 26.65 -2 28.3 -2 30 C-1.34 30 -0.68 30 0 30 C0 20.1 0 10.2 0 0 Z " fill="#E4CACB" transform="translate(492,48)"/>
<path d="M0 0 C0.66 0 1.32 0 2 0 C2 5.61 2 11.22 2 17 C-1.63 16.67 -5.26 16.34 -9 16 C-8.67 15.34 -8.34 14.68 -8 14 C-5.36 14.33 -2.72 14.66 0 15 C0 10.05 0 5.1 0 0 Z " fill="#EEDEDE" transform="translate(246,48)"/>
<path d="M0 0 C0.33 0.99 0.66 1.98 1 3 C1.66 3 2.32 3 3 3 C3 3.99 3 4.98 3 6 C2.01 6 1.02 6 0 6 C0 14.91 0 23.82 0 33 C-0.33 33 -0.66 33 -1 33 C-1.02465392 28.46102295 -1.04283789 23.92208457 -1.05493164 19.38305664 C-1.0599714 17.83780234 -1.0668032 16.29255284 -1.07543945 14.74731445 C-1.08752076 12.53074971 -1.09323173 10.31424782 -1.09765625 8.09765625 C-1.10281754 7.4028566 -1.10797882 6.70805695 -1.11329651 5.99220276 C-1.11349277 4.3277067 -1.06189129 2.66334501 -1 1 C-0.67 0.67 -0.34 0.34 0 0 Z " fill="#E1C0BF" transform="translate(480,85)"/>
<path d="M0 0 C0.99 0.495 0.99 0.495 2 1 C2.59355614 3.64860427 2.74209269 6.29197322 3 9 C3.66 9 4.32 9 5 9 C5.33 11.64 5.66 14.28 6 17 C6.66 17 7.32 17 8 17 C8 19.31 8 21.62 8 24 C7.67 22.68 7.34 21.36 7 20 C6.34 20 5.68 20 5 20 C2.88838269 10.58997722 2.88838269 10.58997722 2 6 C1.34 6 0.68 6 0 6 C0 4.02 0 2.04 0 0 Z " fill="#C77072" transform="translate(289,91)"/>
<path d="M0 0 C1.43655854 -0.08131463 2.8744483 -0.13933559 4.3125 -0.1875 C5.51326172 -0.23970703 5.51326172 -0.23970703 6.73828125 -0.29296875 C9.47851584 0.06198392 10.29171079 0.89366282 12 3 C11.34 3.66 10.68 4.32 10 5 C9.67 4.67 9.34 4.34 9 4 C6.66702567 3.95907063 4.33294775 3.95758277 2 4 C1.67 4.66 1.34 5.32 1 6 C0.34 5.67 -0.32 5.34 -1 5 C-1 2 -1 2 0 0 Z " fill="#DFB5B5" transform="translate(518,23)"/>
<path d="M0 0 C0.99 0 1.98 0 3 0 C3.33 2.64 3.66 5.28 4 8 C3.67 7.01 3.34 6.02 3 5 C2.34 5 1.68 5 1 5 C1 12.26 1 19.52 1 27 C0.67 27 0.34 27 0 27 C0 18.09 0 9.18 0 0 Z " fill="#C57273" transform="translate(480,91)"/>
<path d="M0 0 C0.66 0 1.32 0 2 0 C2.33 2.97 2.66 5.94 3 9 C3.66 8.01 4.32 7.02 5 6 C4.67 9.63 4.34 13.26 4 17 C3.34 16.67 2.68 16.34 2 16 C0.25548659 10.47570753 -0.20612487 5.77149626 0 0 Z " fill="#C77273" transform="translate(354,73)"/>
<path d="M0 0 C0.99 0.33 1.98 0.66 3 1 C2.76228882 1.80195801 2.76228882 1.80195801 2.51977539 2.62011719 C1.89799663 5.46704032 1.7835446 8.16527157 1.68359375 11.078125 C1.64169922 12.23828125 1.59980469 13.3984375 1.55664062 14.59375 C1.51732422 15.8003125 1.47800781 17.006875 1.4375 18.25 C1.39431641 19.47203125 1.35113281 20.6940625 1.30664062 21.953125 C1.20062645 24.9686392 1.09856064 27.98423448 1 31 C0.67 31 0.34 31 0 31 C0 20.77 0 10.54 0 0 Z " fill="#E9CDCD" transform="translate(288,87)"/>
<path d="M0 0 C0.33 0 0.66 0 1 0 C1.02505615 0.70608398 1.0501123 1.41216797 1.07592773 2.13964844 C1.19207369 5.34327509 1.31471603 8.54662118 1.4375 11.75 C1.47681641 12.86117187 1.51613281 13.97234375 1.55664062 15.1171875 C1.59853516 16.18710938 1.64042969 17.25703125 1.68359375 18.359375 C1.72025146 19.34389648 1.75690918 20.32841797 1.79467773 21.34277344 C1.97598742 23.68923551 2.34331819 25.74718412 3 28 C2.01 28 1.02 28 0 28 C0 18.76 0 9.52 0 0 Z " fill="#E8CACA" transform="translate(288,48)"/>
<path d="M0 0 C0.33 0 0.66 0 1 0 C1.33 4.29 1.66 8.58 2 13 C2.66 13 3.32 13 4 13 C4.33 15.97 4.66 18.94 5 22 C2.14764259 20.57382129 1.9951629 18.98548869 1 16 C-0.23575253 10.68626413 -0.09643123 5.42157797 0 0 Z " fill="#CE8586" transform="translate(335,68)"/>
<path d="M0 0 C0.33 1.32 0.66 2.64 1 4 C0.34 4 -0.32 4 -1 4 C-1.66 7.3 -2.32 10.6 -3 14 C-3.99 14.33 -4.98 14.66 -6 15 C-6 14.01 -6 13.02 -6 12 C-5.34 12 -4.68 12 -4 12 C-3.896875 10.948125 -3.79375 9.89625 -3.6875 8.8125 C-3.02266585 5.12569246 -2.11433704 3.03361401 0 0 Z " fill="#CC8081" transform="translate(314,59)"/>
<path d="M0 0 C0.66 0 1.32 0 2 0 C2 2.97 2 5.94 2 9 C1.01 9 0.02 9 -1 9 C-1.09765625 2.84765625 -1.09765625 2.84765625 -1 1 C-0.67 0.67 -0.34 0.34 0 0 Z " fill="#B2292D" transform="translate(420,83)"/>
<path d="M0 0 C0.33 0.99 0.66 1.98 1 3 C-2.6441774 5.4294516 -4.71241272 5.16179575 -9 5 C-9.33 4.34 -9.66 3.68 -10 3 C-8.72125 2.87625 -7.4425 2.7525 -6.125 2.625 C-2.65209064 2.30957601 -2.65209064 2.30957601 0 0 Z " fill="#EBD7D7" transform="translate(529,36)"/>
<path d="M0 0 C1.46911544 3.81970016 0.52561108 6.30641529 -1 10 C-1.66 10.66 -2.32 11.32 -3 12 C-3 10.02 -3 8.04 -3 6 C-2.34 6 -1.68 6 -1 6 C-0.67 4.02 -0.34 2.04 0 0 Z " fill="#DDACAD" transform="translate(212,61)"/>
<path d="M0 0 C0.99 0.495 0.99 0.495 2 1 C2 1.99 2 2.98 2 4 C2.66 4 3.32 4 4 4 C4 6.31 4 8.62 4 11 C3.67 9.68 3.34 8.36 3 7 C2.34 7 1.68 7 1 7 C0.67 4.69 0.34 2.38 0 0 Z " fill="#CB7B7C" transform="translate(293,104)"/>
<path d="M0 0 C3.14958831 3.42346555 3.56179109 6.44262737 4 11 C1.38726012 9.69363006 1.02763876 8.71590242 0 6 C-0.125 2.75 -0.125 2.75 0 0 Z " fill="#E2BBBB" transform="translate(209,92)"/>
</svg>
